<?xml version="1.0" encoding="UTF-8"?>
<svg version="1.1" xmlns="http://www.w3.org/2000/svg" width="582" height="409">
<path d="M0 0 C1.46385755 1.4318741 2.9051913 2.88751065 4.3125 4.375 C5.12654297 5.22964844 5.12654297 5.22964844 5.95703125 6.1015625 C10.48703574 11.19292201 11.71155703 15.54714849 11.578125 22.21875 C11.16174064 25.59881125 9.69375086 27.99374914 7.3125 30.375 C1.44970484 31.24818226 -2.08407461 29.57771909 -7.00390625 26.41015625 C-14.84235963 20.46571053 -21.34027105 12.84321926 -27.6875 5.375 C-28.99798589 3.87324004 -30.31045788 2.37321068 -31.625 0.875 C-32.64595072 -0.29156395 -33.66680441 -1.45821282 -34.6875 -2.625 C-48.33689492 0.42792658 -61.79006799 4.08046311 -75.25 7.875 C-76.34452484 8.18279388 -77.43904968 8.49058777 -78.56674194 8.80770874 C-125.51017318 22.01961807 -172.13746666 36.3702035 -218.1875 52.4375 C-219.46024277 52.8808519 -219.46024277 52.8808519 -220.75869751 53.3331604 C-230.17008198 56.62039922 -239.53182471 60.02999911 -248.85546875 63.55859375 C-249.70802246 63.87981705 -250.56057617 64.20104034 -251.43896484 64.53199768 C-259.0396274 67.43243019 -266.38947247 70.78764392 -273.6875 74.375 C-264.21594331 96.52462996 -222.52308685 114.84712128 -202.6875 126.375 C-201.94564453 126.8071582 -201.20378906 127.23931641 -200.43945312 127.68457031 C-195.89377174 130.32090215 -191.31663104 132.88813595 -186.6875 135.375 C-185.67042969 135.92414063 -184.65335937 136.47328125 -183.60546875 137.0390625 C-182.22294922 137.73128906 -182.22294922 137.73128906 -180.8125 138.4375 C-180.05195313 138.82035156 -179.29140625 139.20320312 -178.5078125 139.59765625 C-168.56019494 142.33945112 -158.31640453 139.02104216 -148.5625 136.75 C-146.94441209 136.3817128 -145.32616481 136.01412511 -143.70776367 135.6472168 C-134.77511465 133.61049963 -125.87654682 131.45695984 -117 129.1875 C-91.83595603 122.77030209 -66.64281575 118.16874252 -40.625 118 C-39.3654248 117.98606201 -38.10584961 117.97212402 -36.80810547 117.95776367 C-20.14236184 118.04202252 -3.39392421 120.97303759 9.3125 132.375 C9.92867187 132.9215625 10.54484375 133.468125 11.1796875 134.03125 C19.66216462 142.02362844 26.16910194 151.3088803 26.875 163.125 C26.46025017 175.82272557 18.11001281 185.08295304 9.3125 193.375 C-8.54053258 208.2849199 -29.1696003 211.55852976 -51.6875 210.375 C-55.47296144 210.00466732 -59.21439724 209.46207146 -62.96875 208.85546875 C-64.03269989 208.68382202 -65.09664978 208.51217529 -66.19284058 208.33532715 C-80.27798793 205.92308482 -94.0291933 202.09165847 -107.8125 198.375 C-129.47298362 192.49101532 -129.47298362 192.49101532 -151.4296875 187.875 C-152.31576691 187.71483398 -153.20184631 187.55466797 -154.11477661 187.38964844 C-180.48823424 183.04110363 -212.60703296 194.45733543 -234.45703125 209.25 C-237.40413332 211.64484301 -239.29431508 213.18221305 -240.5 216.83984375 C-240.86944419 221.83503709 -237.32129883 225.42154487 -234.25 229.09375 C-210.6273449 254.1337644 -171.1473019 275.1632258 -137.46875 281.30859375 C-132.28677537 281.43232067 -128.79077768 280.41112165 -124.9921875 276.84375 C-124.19039063 275.8640625 -123.38859375 274.884375 -122.5625 273.875 C-118.31860278 268.72266472 -115.66988258 266.67829314 -109 266 C-102.88960536 266.20752284 -97.24838597 268.16419769 -92.6015625 272.17578125 C-86.3725327 278.94360899 -84.08312479 285.25189569 -84.3359375 294.43359375 C-85.00737129 300.05125644 -87.1004167 303.7879167 -91.0625 307.75 C-103.66763713 315.55318013 -120.04073006 312.34543257 -133.6875 309.375 C-147.97286709 305.94101753 -161.37675781 300.52258591 -174.6875 294.375 C-175.38794434 294.05305664 -176.08838867 293.73111328 -176.81005859 293.39941406 C-195.61874313 284.64580318 -212.9423644 273.58744854 -229.44238281 261.07275391 C-248.53898663 246.63193366 -268.39172661 233.07012064 -293.41992188 235.6574707 C-296.11811978 236.03631709 -298.80876278 236.44963801 -301.5 236.875 C-340.69777355 242.56102581 -387.8227863 231.87395371 -420.6875 209.375 C-427.22252485 204.44650209 -432.74803763 199.57301113 -434.6875 191.375 C-435.45760209 185.39538379 -435.24969901 180.4310244 -431.6875 175.375 C-425.34089116 168.17856034 -415.72203089 164.89599652 -406.29760742 164.19799805 C-370.36003636 163.31873785 -336.76260913 173.53102519 -303.8046875 187.20703125 C-302.67611328 187.67262451 -301.54753906 188.13821777 -300.38476562 188.61791992 C-298.22299821 189.5172266 -296.0675764 190.4319941 -293.91992188 191.36450195 C-292.94345703 191.77273193 -291.96699219 192.18096191 -290.9609375 192.6015625 C-290.10935059 192.96846191 -289.25776367 193.33536133 -288.38037109 193.71337891 C-281.71742363 195.35042221 -276.1496175 192.48825375 -270.30859375 189.61328125 C-269.51087051 189.2303894 -268.71314728 188.84749756 -267.89125061 188.45300293 C-265.29828451 187.20637527 -262.71177169 185.94692314 -260.125 184.6875 C-258.33776761 183.82597082 -256.55000243 182.96554606 -254.76171875 182.10620117 C-252.04669266 180.80147749 -249.33195783 179.49619599 -246.61886597 178.18745422 C-238.17488684 174.11573311 -229.68879074 170.13784419 -221.1875 166.1875 C-219.90027217 165.58837719 -218.61308021 164.98917728 -217.32592773 164.38989258 C-214.44706385 163.05027121 -211.56763957 161.71187584 -208.6875 160.375 C-208.6875 159.715 -208.6875 159.055 -208.6875 158.375 C-210.11656906 156.97962539 -210.11656906 156.97962539 -212.02734375 155.57421875 C-212.75179688 155.01605469 -213.47625 154.45789063 -214.22265625 153.8828125 C-215.41181641 152.98175781 -215.41181641 152.98175781 -216.625 152.0625 C-217.4396875 151.43730469 -218.254375 150.81210938 -219.09375 150.16796875 C-221.6204594 148.23095505 -224.1534837 146.3024408 -226.6875 144.375 C-228.8320587 142.73642385 -230.97551716 141.0964172 -233.11889648 139.45629883 C-234.50922904 138.39348944 -235.9006871 137.33215092 -237.29321289 136.2722168 C-240.91468912 133.51285785 -244.51533019 130.7312073 -248.0859375 127.90625 C-257.29096529 120.63525463 -266.68677274 113.81801014 -276.421875 107.2734375 C-279.81769165 104.98636831 -283.11078311 102.59759543 -286.375 100.125 C-303.86841478 87.20466688 -317.96328783 85.36491305 -339.1875 87.4375 C-340.49847656 87.56181396 -341.80945313 87.68612793 -343.16015625 87.81420898 C-359.69785665 89.43743502 -376.17253216 91.66983364 -392.64257812 93.86157227 C-412.80654651 96.5244029 -432.95313688 98.72920392 -453.3125 98.75 C-454.61316406 98.77449219 -455.91382813 98.79898438 -457.25390625 98.82421875 C-475.8031232 98.87981081 -491.31560179 92.23773161 -504.640625 79.45703125 C-505.31609375 78.76996094 -505.9915625 78.08289063 -506.6875 77.375 C-507.19796875 76.86324219 -507.7084375 76.35148437 -508.234375 75.82421875 C-514.89474447 68.5265917 -518.04846701 59.52280067 -517.90234375 49.78125 C-517.4133815 44.30487278 -515.87400134 39.85812667 -512.4375 35.5625 C-488.27035185 16.33863216 -450.66486104 18.35168427 -421.625 21.625 C-394.31422362 24.94932309 -368.66873989 31.38531744 -343.06494141 41.40087891 C-316.84586332 51.92007645 -316.84586332 51.92007645 -289.3125 49.5625 C-288.18658447 49.25046631 -287.06066895 48.93843262 -285.90063477 48.61694336 C-250.08672981 38.53708745 -214.81110946 26.36968541 -179.50392151 14.67370605 C-175.02929864 13.19163361 -170.55310544 11.71432711 -166.07660961 10.23792267 C-163.00388909 9.2240824 -159.93238853 8.20676893 -156.86251831 7.18432617 C-130.52360272 -1.58740865 -103.93425396 -9.20333027 -76.6875 -14.625 C-75.94935059 -14.77195312 -75.21120117 -14.91890625 -74.45068359 -15.0703125 C-48.89110482 -19.91060543 -20.26944194 -17.8070801 0 0 Z M-499.6875 46.375 C-502.59433314 51.0435502 -503.17211371 54.78624202 -502.3203125 60.10546875 C-500.66495626 66.04227105 -497.13484315 70.93956866 -491.953125 74.28515625 C-458.44779819 90.4023738 -410.91150113 83.12720236 -375.9375 76.4375 C-374.67139893 76.19692871 -373.40529785 75.95635742 -372.10083008 75.70849609 C-362.32715 73.73688296 -352.74758635 71.47452481 -344.6875 65.375 C-345.01944574 62.56294534 -345.2236782 60.85412556 -347.2265625 58.78515625 C-379.39515803 38.00207487 -427.17311014 38.27442959 -464.1875 38.125 C-465.30531357 38.1169635 -465.30531357 38.1169635 -466.44570923 38.10876465 C-484.61081588 37.58862192 -484.61081588 37.58862192 -499.6875 46.375 Z M-135.6875 159.375 C-136.3475 160.365 -137.0075 161.355 -137.6875 162.375 C-135.39211449 167.94609191 -130.9232762 169.83911803 -125.6875 172.375 C-92.12967769 186.12586987 -39.45309409 196.61718878 -4.0625 184.75 C2.23201015 181.8547398 6.49655395 176.7972331 9.25 170.5 C11.38921142 163.61147015 11.17980953 157.55290372 8.125 151 C5.00518703 145.46233198 1.95723371 142.78974448 -4.0625 140.75 C-41.73118159 130.70135753 -102.76419487 137.25465437 -135.6875 159.375 Z M-421.1875 184.1875 C-423.19975219 187.12203444 -423.75776394 188.79153919 -423.6875 192.375 C-420.36403764 199.68661719 -413.8831634 202.70210679 -406.71044922 205.62011719 C-384.19598204 214.02160554 -349.58419556 217.07037266 -326.6875 208.375 C-323.89497658 206.37669122 -323.89497658 206.37669122 -321.6875 204.375 C-322.02332379 201.57850372 -322.48352019 200.5547649 -324.62890625 198.6640625 C-345.80469079 185.22012179 -398.79517796 167.95306652 -421.1875 184.1875 Z " fill="#9173CD" transform="translate(540.6875,79.625)"/>
<path d="M0 0 C2.0007728 -0.00964693 4.00140415 -0.04082281 6.00195312 -0.07226562 C19.38021278 -0.12493594 31.48147389 2.15390049 43.90039062 7.24023438 C43.90039062 8.23023438 43.90039062 9.22023437 43.90039062 10.24023438 C42.70414063 9.78648437 41.50789062 9.33273438 40.27539062 8.86523438 C37.68236254 7.88881883 35.09804986 6.97765012 32.46289062 6.11523438 C29.90039062 5.24023438 29.90039062 5.24023438 28.90039062 4.24023438 C18.08018918 1.68198338 7.1230193 2.00524626 -3.91210938 2.11523438 C-5.68358865 2.1252913 -7.4550735 2.13441232 -9.2265625 2.14257812 C-13.51771858 2.16436051 -17.80860051 2.19873834 -22.09960938 2.24023438 C-22.09960938 1.91023437 -22.09960938 1.58023438 -22.09960938 1.24023438 C-14.72645685 0.23554106 -7.43827298 0.02156021 0 0 Z " fill="#8A75B9" transform="translate(497.099609375,197.759765625)"/>
<path d="M0 0 C16.96244242 -0.55238415 31.32464691 0.03095767 47 7 C47 7.33 47 7.66 47 8 C45.35 8 43.7 8 42 8 C42 7.34 42 6.68 42 6 C40.741875 6 39.48375 6 38.1875 6 C34.45833333 6 30.72916667 6 27 6 C26.67 5.01 26.34 4.02 26 3 C23.01632274 2.00544091 20.7995808 1.80440368 17.67578125 1.68359375 C16.64775391 1.64169922 15.61972656 1.59980469 14.56054688 1.55664062 C12.95276367 1.49766602 12.95276367 1.49766602 11.3125 1.4375 C10.22904297 1.39431641 9.14558594 1.35113281 8.02929688 1.30664062 C5.35299209 1.20053162 2.67659474 1.09847639 0 1 C0 0.67 0 0.34 0 0 Z " fill="#9078C0" transform="translate(479,63)"/>
<path d="M0 0 C0.56203125 0.33773438 1.1240625 0.67546875 1.703125 1.0234375 C4.39726644 2.1689058 5.88038233 2.0470026 8.75 1.625 C9.94882812 1.45871094 9.94882812 1.45871094 11.171875 1.2890625 C11.77515625 1.19367188 12.3784375 1.09828125 13 1 C13.33 1.99 13.66 2.98 14 4 C25.32403587 5.5890677 36.57727299 6.49761154 48 7 C48 7.33 48 7.66 48 8 C36.2711955 8.4439926 25.04174422 8.00828256 13.4375 6.125 C12.36185791 5.95129883 11.28621582 5.77759766 10.17797852 5.59863281 C1.90451337 4.16873276 1.90451337 4.16873276 -2 2 C-1.34 2 -0.68 2 0 2 C0 1.34 0 0.68 0 0 Z " fill="#8973BA" transform="translate(462,282)"/>
<path d="M0 0 C0.66 0.33 1.32 0.66 2 1 C1.67 1.66 1.34 2.32 1 3 C0.34 3 -0.32 3 -1 3 C-1 3.66 -1 4.32 -1 5 C-1.97753644 6.02196992 -2.9805881 7.01979625 -4 8 C-4.99 9.485 -4.99 9.485 -6 11 C-5.67 11.66 -5.34 12.32 -5 13 C-5.66 13 -6.32 13 -7 13 C-7.63401814 20.96045001 -6.17676385 27.67257389 -3 35 C-2.34 35.66 -1.68 36.32 -1 37 C-0.375 39.625 -0.375 39.625 0 42 C-2.61973192 39.65602934 -4.06926039 37.26511246 -5.625 34.125 C-6.05039062 33.28195313 -6.47578125 32.43890625 -6.9140625 31.5703125 C-10.15651604 23.89572823 -9.82230486 15.75051855 -6.99609375 8.015625 C-5.53629517 5.06167963 -3.49794604 3.10353351 -1 1 C-0.67 0.67 -0.34 0.34 0 0 Z " fill="#8B75BB" transform="translate(32,112)"/>
<path d="M0 0 C8.20111432 -0.07471596 16.3690423 0.16032724 24.5625 0.5 C32.38020027 0.82300939 40.17488427 1.08020047 48 1 C48 1.66 48 2.32 48 3 C39.71182487 4.2342292 31.76465266 3.78162136 23.4375 3.125 C22.17486328 3.03347656 20.91222656 2.94195312 19.61132812 2.84765625 C13.05576498 2.36155183 6.52713929 1.77957147 0 1 C0 0.67 0 0.34 0 0 Z " fill="#8975BA" transform="translate(476,266)"/>
<path d="M0 0 C2.32983945 0.22682331 4.66416969 0.40921114 7 0.5625 C8.2375 0.64628906 9.475 0.73007812 10.75 0.81640625 C12.83091436 0.9339579 14.91576802 1 17 1 C17.495 2.485 17.495 2.485 18 4 C16.73027344 3.855625 15.46054688 3.71125 14.15234375 3.5625 C-6.03534748 1.19081211 -6.03534748 1.19081211 -26 4 C-26 3.34 -26 2.68 -26 2 C-20.85765729 0.35095031 -16.13284042 -0.41132815 -10.75 -0.6875 C-10.04359375 -0.73455078 -9.3371875 -0.78160156 -8.609375 -0.83007812 C-5.40396559 -1.01523909 -3.07537872 -1.02512624 0 0 Z " fill="#8974B8" transform="translate(148,258)"/>
<path d="M0 0 C1.03060547 -0.00128906 2.06121094 -0.00257813 3.12304688 -0.00390625 C4.18974609 -0.00003906 5.25644531 0.00382813 6.35546875 0.0078125 C7.41056641 0.00394531 8.46566406 0.00007812 9.55273438 -0.00390625 C15.31171749 0.00327005 20.84827577 0.26727412 26.54296875 1.1328125 C26.21296875 1.7928125 25.88296875 2.4528125 25.54296875 3.1328125 C19.28715605 4.54922292 19.28715605 4.54922292 16.8046875 3.16015625 C13.49264972 1.65572458 10.23332355 1.88316411 6.66796875 1.9453125 C5.62576172 1.9462793 5.62576172 1.9462793 4.5625 1.94726562 C1.37537972 1.97427512 -1.63425255 2.16346136 -4.77734375 2.70703125 C-7.45703125 3.1328125 -7.45703125 3.1328125 -10.45703125 2.1328125 C-10.45703125 1.8028125 -10.45703125 1.4728125 -10.45703125 1.1328125 C-6.91113985 0.32523303 -3.63389607 0.00441504 0 0 Z " fill="#8E77BE" transform="translate(137.45703125,243.8671875)"/>
<path d="M0 0 C1.010625 0.185625 2.02125 0.37125 3.0625 0.5625 C6.97914227 0.99768247 10.14244663 0.70853021 14 0 C9.39950171 3.06699886 4.21587788 4.36907761 -1.02441406 6.05102539 C-2.99619926 6.68627551 -4.96287057 7.3358828 -6.9296875 7.98632812 C-8.16976563 8.38658203 -9.40984375 8.78683594 -10.6875 9.19921875 C-11.82574219 9.56877686 -12.96398437 9.93833496 -14.13671875 10.3190918 C-17 11 -17 11 -20 10 C-19.29875 9.75765625 -18.5975 9.5153125 -17.875 9.265625 C-7.61671412 6.35557331 -7.61671412 6.35557331 0 0 Z " fill="#8A72BC" transform="translate(388,105)"/>
<path d="M0 0 C0 3 0 3 -1 6 C-1.99 6.33 -2.98 6.66 -4 7 C-4 7.99 -4 8.98 -4 10 C-4.99 10 -5.98 10 -7 10 C-7 10.66 -7 11.32 -7 12 C-7.99 12.66 -8.98 13.32 -10 14 C-10.66 14.99 -11.32 15.98 -12 17 C-11.87403812 10.95382995 -9.90514527 8.13604976 -5.88671875 3.69921875 C-4.01059213 2.0095395 -2.30491581 1.00235853 0 0 Z " fill="#8C73C1" transform="translate(118,248)"/>
<path d="M0 0 C0.66 0.33 1.32 0.66 2 1 C1.31292969 1.39832031 0.62585938 1.79664063 -0.08203125 2.20703125 C-0.98308594 2.73683594 -1.88414062 3.26664062 -2.8125 3.8125 C-3.70582031 4.33457031 -4.59914063 4.85664063 -5.51953125 5.39453125 C-7.98294083 6.85866785 -7.98294083 6.85866785 -9.62890625 8.671875 C-11 10 -11 10 -14.125 10.4375 C-18.89682171 11.1301838 -22.69706792 12.90219865 -27 15 C-27 14.34 -27 13.68 -27 13 C-23.19629718 11.12016164 -19.38771775 9.25072343 -15.57421875 7.39086914 C-14.2769193 6.75635582 -12.98100983 6.11899252 -11.68652344 5.47875977 C-9.82843029 4.56038371 -7.9656226 3.65228435 -6.1015625 2.74609375 C-4.98088379 2.19622803 -3.86020508 1.6463623 -2.70556641 1.07983398 C-1.81272949 0.72348877 -0.91989258 0.36714355 0 0 Z " fill="#8B73BB" transform="translate(287,261)"/>
<path d="M0 0 C10.14520949 2.28419088 20.10842282 4.76588433 30 8 C25.96573393 9.59541505 22.8576804 8.35445826 18.8125 7.1875 C14.45935899 5.94713707 10.13862461 4.77842908 5.6875 3.9375 C2 3 2 3 0 0 Z " fill="#8E75BF" transform="translate(178,248)"/>
<path d="M0 0 C4.875 1.875 4.875 1.875 6 3 C6.04063832 4.66617115 6.042721 6.33388095 6 8 C5.34 8 4.68 8 4 8 C4 8.66 4 9.32 4 10 C1.525 9.01 1.525 9.01 -1 8 C-0.67 5.36 -0.34 2.72 0 0 Z " fill="#9174CF" transform="translate(117,276)"/>
<path d="M0 0 C0.33 0 0.66 0 1 0 C1.32321868 5.49471751 1.5464527 9.46054055 -2 14 C-3 15 -3 15 -6.1875 15.25 C-10.22587057 14.98518881 -12.54156471 14.02444992 -16 12 C-14.1875 11.375 -14.1875 11.375 -12 11 C-11.01 11.66 -10.02 12.32 -9 13 C-7.34450469 13.38499891 -5.6777567 13.72793135 -4 14 C-3.87625 13.195625 -3.7525 12.39125 -3.625 11.5625 C-3.41875 10.716875 -3.2125 9.87125 -3 9 C-2.34 8.67 -1.68 8.34 -1 8 C-0.53476937 6.10466658 -0.53476937 6.10466658 -0.375 3.9375 C-0.25125 2.638125 -0.1275 1.33875 0 0 Z " fill="#8774B1" transform="translate(551,95)"/>
<path d="M0 0 C3.43950364 0.61198376 5.51564485 1.92058847 8.25 4.0625 C8.95640625 4.61035156 9.6628125 5.15820312 10.390625 5.72265625 C11.18726563 6.35494141 11.18726563 6.35494141 12 7 C11.05358987 10.26941682 10.58815053 11.66822278 7.5625 13.375 C5 14 5 14 2 13 C3.65 12.01 5.3 11.02 7 10 C6.96219702 7.62766389 6.96219702 7.62766389 6 5 C3.02236957 2.73674754 3.02236957 2.73674754 0 1 C0 0.67 0 0.34 0 0 Z " fill="#8B74BC" transform="translate(188,135)"/>
<path d="M0 0 C2.125 0.375 2.125 0.375 4 1 C3.45730469 1.30550781 2.91460937 1.61101562 2.35546875 1.92578125 C-2.42527535 4.98373468 -4.52767017 7.30887502 -6 12.875 C-6.36314567 14.57724532 -6.70692691 16.28430129 -7 18 C-7.33 18 -7.66 18 -8 18 C-8.12375 16.88625 -8.2475 15.7725 -8.375 14.625 C-8.6465813 10.96896323 -8.6465813 10.96896323 -11 9 C-10.37351563 8.51789063 -9.74703125 8.03578125 -9.1015625 7.5390625 C-7.87566406 6.59160156 -7.87566406 6.59160156 -6.625 5.625 C-5.81289063 4.99851562 -5.00078125 4.37203125 -4.1640625 3.7265625 C-1.95776805 2.03226506 -1.95776805 2.03226506 0 0 Z " fill="#8C71C3" transform="translate(45,120)"/>
<path d="M0 0 C0.66 0 1.32 0 2 0 C4.81308683 6.32944538 5.30229277 14.31851851 2.984375 20.87109375 C2.65953125 21.57363281 2.3346875 22.27617187 2 23 C0.77670926 19.33012779 1.11978994 16.66032178 1.4375 12.8125 C1.53933594 11.54019531 1.64117188 10.26789063 1.74609375 8.95703125 C1.82988281 7.98121094 1.91367187 7.00539062 2 6 C1.34 5.67 0.68 5.34 0 5 C0 3.35 0 1.7 0 0 Z " fill="#8B76BA" transform="translate(563,231)"/>
<path d="M0 0 C1.22589844 0.15275391 1.22589844 0.15275391 2.4765625 0.30859375 C3.41628906 0.43427734 3.41628906 0.43427734 4.375 0.5625 C1.64499329 3.29250671 -1.53845467 4.07347906 -5.125 5.25 C-5.81464844 5.48783203 -6.50429688 5.72566406 -7.21484375 5.97070312 C-12.37713151 7.68643424 -12.37713151 7.68643424 -14.625 6.5625 C-12.26546906 4.20296906 -10.84604383 4.07108587 -7.625 3.5625 C-7.295 2.5725 -6.965 1.5825 -6.625 0.5625 C-4.10446405 -0.69776798 -2.7707902 -0.35624445 0 0 Z " fill="#8B71BE" transform="translate(341.625,122.4375)"/>
<path d="M0 0 C0.66 0 1.32 0 2 0 C2.33 0.99 2.66 1.98 3 3 C5.00016466 4.20882096 5.00016466 4.20882096 7 5 C-6.6332574 9.59225513 -6.6332574 9.59225513 -13 9 C-9.20458337 6.78600697 -5.24370579 5.99019802 -1 5 C-0.67 3.35 -0.34 1.7 0 0 Z " fill="#8A73BE" transform="translate(523,280)"/>
<path d="M0 0 C0.66 0.33 1.32 0.66 2 1 C-0.55570675 2.53342405 -3.11083127 4.06443678 -5.6875 5.5625 C-8.07946274 6.92797633 -8.07946274 6.92797633 -10 9 C-10.33 8.67 -10.66 8.34 -11 8 C-11.99 8.495 -11.99 8.495 -13 9 C-13 9.66 -13 10.32 -13 11 C-14.32 10.34 -15.64 9.68 -17 9 C-13.70101352 6.30230662 -10.2321566 4.54362136 -6.375 2.75 C-5.22773438 2.20859375 -4.08046875 1.6671875 -2.8984375 1.109375 C-1.94195312 0.74328125 -0.98546875 0.3771875 0 0 Z " fill="#8A74BE" transform="translate(326,243)"/>
<path d="M0 0 C4.49324849 1.65770333 8.61186146 3.84982162 12.8125 6.125 C13.50537109 6.49753906 14.19824219 6.87007813 14.91210938 7.25390625 C16.60934836 8.16690377 18.30485138 9.08312716 20 10 C19.34 10.66 18.68 11.32 18 12 C17.278125 11.54625 16.55625 11.0925 15.8125 10.625 C13.25105919 9.14505642 10.76722011 8.02782461 8 7 C8 6.34 8 5.68 8 5 C6.68 5 5.36 5 4 5 C3.67 4.34 3.34 3.68 3 3 C2.01 2.67 1.02 2.34 0 2 C0 1.34 0 0.68 0 0 Z " fill="#8A74BA" transform="translate(340,335)"/>
<path d="M0 0 C0.66 0 1.32 0 2 0 C3.24309419 1.50479823 4.48384953 3.01178436 5.69921875 4.5390625 C7.26739573 6.30031833 8.83561915 7.10439413 11 8 C11.66 8.66 12.32 9.32 13 10 C12.67 10.33 12.34 10.66 12 11 C12.99 11.66 13.98 12.32 15 13 C14.67 13.66 14.34 14.32 14 15 C12.41540185 13.58474822 10.83237609 12.1677358 9.25 10.75 C8.36828125 9.96109375 7.4865625 9.1721875 6.578125 8.359375 C1.90343075 4.08132147 1.90343075 4.08132147 0 2 C0 1.34 0 0.68 0 0 Z " fill="#8973B9" transform="translate(520,91)"/>
<path d="M0 0 C2.97 0 5.94 0 9 0 C8 2 8 2 5.375 3.0625 C-1.11536363 4.86537878 -7.31700248 5.1363877 -14 5 C-14 4.67 -14 4.34 -14 4 C-12.72125 3.855625 -11.4425 3.71125 -10.125 3.5625 C-7.74307106 3.29357254 -6.15547309 3.07773654 -4 2 C-3.01 2.33 -2.02 2.66 -1 3 C-0.67 2.01 -0.34 1.02 0 0 Z " fill="#8772B8" transform="translate(439,387)"/>
<path d="M0 0 C1.21236328 0.01353516 1.21236328 0.01353516 2.44921875 0.02734375 C3.37154297 0.04474609 3.37154297 0.04474609 4.3125 0.0625 C4.3125 0.3925 4.3125 0.7225 4.3125 1.0625 C2.84490234 1.35253906 2.84490234 1.35253906 1.34765625 1.6484375 C-5.68285749 3.04306039 -12.69880819 4.46858783 -19.6875 6.0625 C-18.99609375 4.10546875 -18.99609375 4.10546875 -17.6875 2.0625 C-15.41015625 1.48828125 -15.41015625 1.48828125 -12.75 1.375 C-8.34223095 1.14779541 -4.41195976 -0.06394145 0 0 Z " fill="#8973BC" transform="translate(363.6875,264.9375)"/>
<path d="M0 0 C3.3 0 6.6 0 10 0 C10 0.99 10 1.98 10 3 C11.65 2.67 13.3 2.34 15 2 C15.66 3.65 16.32 5.3 17 7 C11.27789404 5.13236819 5.62338249 3.14710968 0 1 C0 0.67 0 0.34 0 0 Z " fill="#8B74BC" transform="translate(171,128)"/>
<path d="M0 0 C8.415 3.96 8.415 3.96 17 8 C17 8.33 17 8.66 17 9 C13.33275111 9.34113943 11.57436886 9.4270948 8.5625 7.1875 C7.716875 6.465625 6.87125 5.74375 6 5 C3.70609183 3.85304591 1.39171243 2.93792644 -1 2 C-0.67 1.34 -0.34 0.68 0 0 Z " fill="#8D75BD" transform="translate(345,211)"/>
<path d="M0 0 C3.5 1 3.5 1 6 2 C2.86650268 3.04449911 2.01031744 2.93423645 -1 2 C-1.33 2.66 -1.66 3.32 -2 4 C-2.66 3.34 -3.32 2.68 -4 2 C-7.58343976 1.83322718 -7.58343976 1.83322718 -11 2 C-7.27367284 -0.48421811 -4.31338065 -0.42240263 0 0 Z M-5 4 C-4.01 4 -3.02 4 -2 4 C-2 4.66 -2 5.32 -2 6 C-2.99 6 -3.98 6 -5 6 C-5 5.34 -5 4.68 -5 4 Z " fill="#8A72BA" transform="translate(436,346)"/>
<path d="M0 0 C3.12482562 -0.08687496 6.24934246 -0.14034568 9.375 -0.1875 C10.70917969 -0.22520508 10.70917969 -0.22520508 12.0703125 -0.26367188 C13.34648437 -0.27817383 13.34648437 -0.27817383 14.6484375 -0.29296875 C15.82672119 -0.31653442 15.82672119 -0.31653442 17.02880859 -0.34057617 C17.67930176 -0.22818604 18.32979492 -0.1157959 19 0 C19.66 0.99 20.32 1.98 21 3 C13.97326485 2.49656013 6.98059091 1.95812032 0 1 C0 0.67 0 0.34 0 0 Z " fill="#8974B9" transform="translate(132,121)"/>
<path d="M0 0 C0.66 0.33 1.32 0.66 2 1 C0.625 3 0.625 3 -1 5 C-1.66 5 -2.32 5 -3 5 C-3 5.99 -3 6.98 -3 8 C-5.5 10.1875 -5.5 10.1875 -8 12 C-8.66 11.67 -9.32 11.34 -10 11 C-6.7 7.37 -3.4 3.74 0 0 Z " fill="#8873B5" transform="translate(423,348)"/>
<path d="M0 0 C2.8940526 0.9646842 3.83997386 1.68794902 5.25 4.4375 C6.27705132 9.31599378 6.15904614 14.03422611 6 19 C5.67 19 5.34 19 5 19 C4.89042969 18.13117188 4.78085937 17.26234375 4.66796875 16.3671875 C3.54303574 7.77143955 3.54303574 7.77143955 0 0 Z " fill="#8C75B9" transform="translate(546,227)"/>
<path d="M0 0 C4.67043096 0.90813935 8.78262771 1.74069342 13 4 C13 4.99 13 5.98 13 7 C8.1725201 5.58707905 4.2837641 3.57025846 0 1 C0 0.67 0 0.34 0 0 Z " fill="#8A72BE" transform="translate(341,360)"/>
<path d="M0 0 C4.97209562 1.76429199 9.43438061 4.3939166 14 7 C9.8204937 8.39316877 7.9052679 6.77512177 4 5 C3.34 5 2.68 5 2 5 C1.34 3.35 0.68 1.7 0 0 Z " fill="#8A74BB" transform="translate(331,203)"/>
<path d="M0 0 C5.01202555 2.98334854 8.38748484 6.43951988 12 11 C7.3591711 10.20189567 5.87980758 7.61821978 3 4 C2.01 3.34 1.02 2.68 0 2 C0 1.34 0 0.68 0 0 Z " fill="#8C74C1" transform="translate(534,75)"/>
<path d="M0 0 C3.4375 0.8125 3.4375 0.8125 7 2 C7.33 2.99 7.66 3.98 8 5 C9.31647119 5.69937532 10.65022151 6.36729133 12 7 C12.33 7.66 12.66 8.32 13 9 C7.97290493 7.42903279 3.97133531 4.38006951 0 1 C0 0.67 0 0.34 0 0 Z " fill="#8A72B6" transform="translate(320,346)"/>
<path d="M0 0 C4.26488247 -0.3118744 6.98566073 0.65574011 10.8125 2.5 C12.27623047 3.19609375 12.27623047 3.19609375 13.76953125 3.90625 C14.50558594 4.2671875 15.24164063 4.628125 16 5 C16 5.66 16 6.32 16 7 C10.55123997 5.27933894 5.28830549 3.15294651 0 1 C0 0.67 0 0.34 0 0 Z " fill="#8A75B9" transform="translate(271,316)"/>
<path d="M0 0 C-0.66 1.65 -1.32 3.3 -2 5 C-2.33 4.34 -2.66 3.68 -3 3 C-7.455 3.495 -7.455 3.495 -12 4 C-12 3.34 -12 2.68 -12 2 C-10.56342755 1.66269158 -9.12569907 1.33030409 -7.6875 1 C-6.88699219 0.814375 -6.08648437 0.62875 -5.26171875 0.4375 C-3 0 -3 0 0 0 Z " fill="#8E75C0" transform="translate(397,216)"/>
<path d="M0 0 C-0.33 1.32 -0.66 2.64 -1 4 C-1.39832031 3.49855469 -1.79664063 2.99710937 -2.20703125 2.48046875 C-3.90350321 0.77257193 -3.90350321 0.77257193 -6.26171875 0.92578125 C-7.06222656 1.05339844 -7.86273438 1.18101563 -8.6875 1.3125 C-9.49574219 1.43238281 -10.30398438 1.55226563 -11.13671875 1.67578125 C-11.75160156 1.78277344 -12.36648438 1.88976562 -13 2 C-10.87079719 -0.12920281 -9.89769567 -0.51084284 -7.0625 -1.25 C-6.37285156 -1.44078125 -5.68320312 -1.6315625 -4.97265625 -1.828125 C-3 -2 -3 -2 0 0 Z " fill="#8A74BC" transform="translate(510,76)"/>
<path d="M0 0 C1.54286547 2.31429821 2.89992755 4.54571028 4.1875 7 C4.55230469 7.680625 4.91710937 8.36125 5.29296875 9.0625 C6 11 6 11 5 14 C1.93757784 9.15939723 0.46588495 5.70709064 0 0 Z " fill="#8A74B9" transform="translate(106,267)"/>
<path d="M0 0 C2.97 0.33 5.94 0.66 9 1 C9 1.66 9 2.32 9 3 C10.65 3.33 12.3 3.66 14 4 C10.30962722 5.37095624 8.29116165 4.60010967 4.75 3.0625 C3.85796875 2.68222656 2.9659375 2.30195313 2.046875 1.91015625 C1.37140625 1.60980469 0.6959375 1.30945313 0 1 C0 0.67 0 0.34 0 0 Z " fill="#8B72B8" transform="translate(148,302)"/>
<path d="M0 0 C3.5875213 1.33250791 6.8364623 2.830717 10 5 C10 5.66 10 6.32 10 7 C6.12697862 5.85569823 2.99736561 4.76679902 0 2 C0 1.34 0 0.68 0 0 Z " fill="#8A75B7" transform="translate(313,192)"/>
<path d="M0 0 C-3.83704776 2.55803184 -7.75712791 4.34505724 -12.4375 3.625 C-12.953125 3.41875 -13.46875 3.2125 -14 3 C-9.41201726 -0.05865516 -5.43293781 -0.12634739 0 0 Z " fill="#8773BA" transform="translate(478,83)"/>
<path d="M0 0 C-3.16240582 2.10827055 -4.50657469 2.33817465 -8.1875 2.625 C-9.53908203 2.73714844 -9.53908203 2.73714844 -10.91796875 2.8515625 C-11.94857422 2.92503906 -11.94857422 2.92503906 -13 3 C-8.8341563 0.22277086 -4.9360889 -1.89849573 0 0 Z " fill="#8C76BA" transform="translate(393,86)"/>
<path d="M0 0 C-1.6232687 0.6708712 -3.24867578 1.33657029 -4.875 2 C-6.23238281 2.556875 -6.23238281 2.556875 -7.6171875 3.125 C-10 4 -10 4 -12 4 C-12 3.34 -12 2.68 -12 2 C-10.75579353 1.4654744 -9.50429064 0.94791389 -8.25 0.4375 C-7.55390625 0.14746094 -6.8578125 -0.14257812 -6.140625 -0.44140625 C-3.69987216 -1.07831803 -2.3596345 -0.80248831 0 0 Z " fill="#8973BA" transform="translate(420,233)"/>
<path d="M0 0 C0.99 0.66 1.98 1.32 3 2 C1.38007835 2.86375896 -0.24611861 3.71575854 -1.875 4.5625 C-3.23238281 5.27599609 -3.23238281 5.27599609 -4.6171875 6.00390625 C-5.40351563 6.33261719 -6.18984375 6.66132813 -7 7 C-7.66 6.67 -8.32 6.34 -9 6 C-6.03 4.02 -3.06 2.04 0 0 Z " fill="#8A73B8" transform="translate(274,147)"/>
<path d="M0 0 C1.62723299 0.45034123 3.25173664 0.91055354 4.875 1.375 C5.77992188 1.63023438 6.68484375 1.88546875 7.6171875 2.1484375 C10 3 10 3 12 5 C10.35 5.33 8.7 5.66 7 6 C6.67 5.01 6.34 4.02 6 3 C2.99152582 1.77479736 2.99152582 1.77479736 0 1 C0 0.67 0 0.34 0 0 Z " fill="#8E76BD" transform="translate(195,121)"/>
<path d="M0 0 C2.16796875 0.36328125 2.16796875 0.36328125 4 1 C3.16855469 1.61488281 3.16855469 1.61488281 2.3203125 2.2421875 C1.59585938 2.78101562 0.87140625 3.31984375 0.125 3.875 C-0.59429687 4.40867187 -1.31359375 4.94234375 -2.0546875 5.4921875 C-4.08252632 6.99873162 -4.08252632 6.99873162 -6 9 C-5.52753358 4.74780225 -3.22727623 2.62685275 0 0 Z " fill="#8771B2" transform="translate(45,120)"/>
<path d="M0 0 C0.33 0 0.66 0 1 0 C1.3125 2.3125 1.3125 2.3125 1 5 C-1.375 6.875 -1.375 6.875 -4 8 C-4.66 7.67 -5.32 7.34 -6 7 C-5.02433888 5.83040013 -4.044375 4.66438823 -3.0625 3.5 C-2.51722656 2.8503125 -1.97195313 2.200625 -1.41015625 1.53125 C-0.71212891 0.77328125 -0.71212891 0.77328125 0 0 Z " fill="#8B74B8" transform="translate(547,254)"/>
<path d="M0 0 C2.31 1.98 4.62 3.96 7 6 C4 6 4 6 1 4 C0.01 3.67 -0.98 3.34 -2 3 C-1 1 -1 1 0 0 Z " fill="#8E77C1" transform="translate(546,209)"/>
<path d="M0 0 C3.375 0.6875 3.375 0.6875 7 2 C8.4375 4.625 8.4375 4.625 9 7 C5.18315774 5.44499019 2.80804268 2.96404505 0 0 Z " fill="#8874B8" transform="translate(287,202)"/>
<path d="M0 0 C0.33 0 0.66 0 1 0 C1.29359745 3.0534135 1.4451258 5.95743422 1 9 C-1.5 11.5625 -1.5 11.5625 -4 13 C-3.625 11.0625 -3.625 11.0625 -3 9 C-2.34 8.67 -1.68 8.34 -1 8 C-0.53476937 6.10466658 -0.53476937 6.10466658 -0.375 3.9375 C-0.25125 2.638125 -0.1275 1.33875 0 0 Z " fill="#8B73BE" transform="translate(551,95)"/>
<path d="M0 0 C5.66153846 1.47692308 5.66153846 1.47692308 7.375 4.125 C7.684375 5.053125 7.684375 5.053125 8 6 C4.63408134 4.55746343 2.48952921 2.66735273 0 0 Z " fill="#8A73BD" transform="translate(327,233)"/>
</svg>
